<svg width="21" height="21" viewBox="0 0 21 21" fill="none" xmlns="http://www.w3.org/2000/svg">
<path d="M12.75 2.21094H7.75V3.8776H12.75V2.21094ZM9.41667 13.0443H11.0833V8.04427H9.41667V13.0443ZM16.1083 7.53594L17.2917 6.3526C16.9333 5.9276 16.5417 5.5276 16.1167 5.1776L14.9333 6.36094C13.6417 5.3276 12.0167 4.71094 10.25 4.71094C6.10833 4.71094 2.75 8.06927 2.75 12.2109C2.75 16.3526 6.1 19.7109 10.25 19.7109C14.4 19.7109 17.75 16.3526 17.75 12.2109C17.75 10.4443 17.1333 8.81927 16.1083 7.53594ZM10.25 18.0443C7.025 18.0443 4.41667 15.4359 4.41667 12.2109C4.41667 8.98594 7.025 6.3776 10.25 6.3776C13.475 6.3776 16.0833 8.98594 16.0833 12.2109C16.0833 15.4359 13.475 18.0443 10.25 18.0443Z" fill="#585858"/>
</svg>
