<svg width="56" height="20" viewBox="0 0 56 20" fill="none" xmlns="http://www.w3.org/2000/svg">
<path d="M9.43774 5.16566H7.38222C6.77045 5.16566 6.27539 4.6706 6.27539 4.05884V2.00331C6.27539 1.39343 6.77045 0.896484 7.38222 0.896484H9.43774C10.0495 0.896484 10.5446 1.39154 10.5446 2.00331V4.05884C10.5446 4.6706 10.0495 5.16566 9.43774 5.16566Z" fill="#426DA9"/>
<path d="M4.12015 9.77454H1.80674C1.11968 9.77454 0.5625 9.21924 0.5625 8.5303V6.21689C0.5625 5.52983 1.11968 4.97266 1.80674 4.97266H4.12015C4.80721 4.97266 5.36438 5.52983 5.36438 6.21689V8.5303C5.36438 9.21924 4.80721 9.77454 4.12015 9.77454Z" fill="#6D2077"/>
<path d="M3.89977 14.5752H2.48801C2.06825 14.5752 1.72754 14.2345 1.72754 13.8147V12.403C1.72754 11.9813 2.06825 11.6406 2.48801 11.6406H3.89977C4.31954 11.6406 4.66024 11.9813 4.66024 12.403V13.8147C4.66024 14.2345 4.31954 14.5752 3.89977 14.5752Z" fill="#AF1685"/>
<path d="M7.69246 19.0396H6.02281C5.52587 19.0396 5.12305 18.6386 5.12305 18.1417V16.472C5.12305 15.9751 5.52587 15.5723 6.02281 15.5723H7.69246C8.1894 15.5723 8.59222 15.9732 8.59222 16.472V18.1417C8.59222 18.6386 8.1894 19.0396 7.69246 19.0396Z" fill="#E63888"/>
<path d="M13.8139 6.00742H12.6563C12.3118 6.00742 12.0332 5.72883 12.0332 5.38625V4.23048C12.0332 3.88601 12.3118 3.60742 12.6563 3.60742H13.8139C14.1584 3.60742 14.4351 3.88601 14.4351 4.23048V5.38625C14.4351 5.72695 14.1565 6.00742 13.8139 6.00742Z" fill="#E63888"/>
<path d="M39.1399 6.77795C39.507 6.77795 39.8063 6.48054 39.8063 6.11159C39.8063 5.74265 39.5089 5.44336 39.1399 5.44336C38.771 5.44336 38.4717 5.74265 38.4717 6.11159C38.4717 6.48054 38.771 6.77795 39.1399 6.77795Z" fill="#1D4F91"/>
<path d="M14.7952 13.8914C14.6917 14.0458 14.5242 14.123 14.3434 14.123C14.2399 14.123 14.1251 14.0966 14.0347 14.0458C13.8936 13.9554 13.79 13.7615 13.79 13.5695C13.79 13.4792 13.8164 13.3888 13.8672 13.3117L15.4145 10.8759L13.8672 8.44013C13.8164 8.36295 13.79 8.25942 13.79 8.16907C13.79 7.98836 13.8804 7.79448 14.0479 7.70413C14.1383 7.65331 14.2286 7.62695 14.3322 7.62695C14.5129 7.62695 14.6936 7.70413 14.7971 7.85848L16.0602 9.85566L17.3364 7.85848C17.4399 7.70413 17.6206 7.62695 17.8013 7.62695C17.9049 7.62695 17.9952 7.65331 18.0856 7.70413C18.2531 7.79448 18.3435 7.98836 18.3435 8.16907C18.3435 8.25942 18.3171 8.36295 18.2663 8.44013L16.719 10.8759L18.2663 13.3117C18.3171 13.3888 18.3435 13.4792 18.3435 13.5695C18.3435 13.7634 18.2399 13.9554 18.0987 14.0458C18.0084 14.0966 17.8917 14.123 17.79 14.123C17.6093 14.123 17.4418 14.0458 17.3383 13.8914L16.062 11.9055L14.7952 13.8914Z" fill="#1D4F91"/>
<path d="M20.3104 8.38793C20.8901 7.85899 21.677 7.53711 22.5278 7.53711C24.3838 7.53711 25.8671 9.0204 25.8671 10.8764C25.8671 12.7079 24.3838 14.1893 22.5278 14.1893C21.677 14.1893 20.8901 13.8675 20.3104 13.3385V16.1884C20.3104 16.4726 20.0525 16.7173 19.757 16.7173C19.4859 16.7173 19.2148 16.4726 19.2148 16.1884V8.11687C19.2148 7.83264 19.4859 7.58793 19.757 7.58793C20.0525 7.58793 20.3104 7.83264 20.3104 8.11687V8.38793ZM22.5278 8.64582C21.2892 8.64582 20.3104 9.62464 20.3104 10.8764C20.3104 12.115 21.2911 13.0938 22.5278 13.0938C23.7777 13.0938 24.7584 12.115 24.7584 10.8764C24.7584 9.62464 23.7795 8.64582 22.5278 8.64582Z" fill="#1D4F91"/>
<path d="M35.3054 10.2703V13.6096C35.3054 13.8938 35.0344 14.1385 34.7633 14.1385C34.4659 14.1385 34.208 13.8938 34.208 13.6096V8.11687C34.208 7.83264 34.4659 7.58793 34.7633 7.58793C35.0212 7.58793 35.2922 7.81946 35.3054 8.09052C35.7572 7.74229 36.337 7.5484 36.9675 7.53711C37.3158 7.53711 37.5737 7.80817 37.5737 8.07923C37.5737 8.37476 37.3026 8.64582 36.9675 8.64582C36.1054 8.67217 35.3054 8.98087 35.3054 10.2703Z" fill="#1D4F91"/>
<path d="M39.1472 7.58789C38.8516 7.58789 38.5938 7.8326 38.5938 8.11683V13.6095C38.5938 13.8938 38.8516 14.1385 39.1472 14.1385C39.4182 14.1385 39.6893 13.8938 39.6893 13.6095V8.11683C39.6893 7.8326 39.4182 7.58789 39.1472 7.58789Z" fill="#1D4F91"/>
<path d="M46.1475 8.11687C46.1475 7.83264 46.4054 7.58793 46.7009 7.58793C46.972 7.58793 47.2431 7.83264 47.2431 8.11687V13.6096C47.2431 13.8938 46.972 14.1385 46.7009 14.1385C46.4035 14.1385 46.1475 13.8938 46.1475 13.6096V13.3385C45.5546 13.8675 44.7809 14.1893 43.9301 14.1893C42.0741 14.1893 40.5908 12.7079 40.5908 10.8501C40.5908 9.0204 42.0741 7.53711 43.9301 7.53711C44.7809 7.53711 45.5546 7.85899 46.1475 8.38793V8.11687ZM43.9301 13.0806C45.1687 13.0806 46.1475 12.0999 46.1475 10.8501C46.1475 9.61146 45.1668 8.63264 43.9301 8.63264C42.6802 8.63264 41.6995 9.61146 41.6995 10.8501C41.6995 12.0999 42.6783 13.0806 43.9301 13.0806Z" fill="#1D4F91"/>
<path d="M52.824 10.3343C52.824 9.41946 52.024 8.61946 51.1092 8.61946C50.2188 8.61946 49.3944 8.98087 49.3944 10.2703V13.6096C49.3944 13.8938 49.1233 14.1385 48.8522 14.1385C48.5548 14.1385 48.2988 13.8938 48.2988 13.6096V8.11687C48.2988 7.83264 48.5567 7.58793 48.8522 7.58793C49.1101 7.58793 49.3812 7.81946 49.3944 8.09052C49.8593 7.72911 50.4522 7.53711 51.096 7.53711C52.5925 7.53711 53.9195 8.70982 53.9195 10.1799V13.6096C53.9195 13.8938 53.6485 14.1385 53.3774 14.1385C53.08 14.1385 52.8221 13.8938 52.8221 13.6096V10.3343H52.824Z" fill="#1D4F91"/>
<path d="M13.4852 10.6693C13.4589 8.98087 11.9511 7.53711 10.1723 7.53711C8.3163 7.53711 6.83301 9.0204 6.83301 10.8501C6.83301 12.7061 8.3163 14.1893 10.1723 14.1893C11.0627 14.1893 11.8871 13.8411 12.4801 13.2482C12.5968 13.1446 12.6739 12.9903 12.6739 12.8359C12.6739 12.5404 12.4161 12.2825 12.1187 12.2825C11.9511 12.2825 11.7968 12.3861 11.6801 12.5028C11.3055 12.9018 10.7521 13.0825 10.1723 13.0825C9.0636 13.0825 8.16195 12.3221 7.96807 11.2661H12.945C12.9488 11.2661 12.9525 11.2642 12.9563 11.2642H12.9714C12.9808 11.2642 12.9902 11.2604 12.9996 11.2585C13.0184 11.2566 13.0372 11.2529 13.0561 11.2472C13.2895 11.1832 13.4852 10.9573 13.4852 10.6693ZM10.1723 8.63264C11.1718 8.63264 12.0019 9.27452 12.2862 10.1686H8.04524C8.32948 9.27452 9.1596 8.63264 10.1723 8.63264Z" fill="#1D4F91"/>
<path d="M33.2811 10.6693C33.2548 8.98087 31.747 7.53711 29.9682 7.53711C28.1122 7.53711 26.6289 9.0204 26.6289 10.8501C26.6289 12.7061 28.1122 14.1893 29.9682 14.1893C30.8567 14.1893 31.683 13.8411 32.276 13.2482C32.3927 13.1446 32.4698 12.9903 32.4698 12.8359C32.4698 12.5404 32.212 12.2825 31.9164 12.2825C31.7489 12.2825 31.5946 12.3861 31.4778 12.5028C31.1033 12.9018 30.5498 13.0825 29.9701 13.0825C28.8614 13.0825 27.9597 12.3221 27.7658 11.2661H32.7334C32.7371 11.2661 32.7409 11.2642 32.7428 11.2642H32.7673C32.7823 11.2623 32.7974 11.2585 32.8106 11.2548C32.8181 11.2529 32.8256 11.2529 32.8331 11.251C33.0741 11.1926 33.2811 10.9649 33.2811 10.6693ZM29.9682 8.63264C30.9677 8.63264 31.7978 9.27452 32.0821 10.1686H27.8411C28.1254 9.27452 28.9555 8.63264 29.9682 8.63264Z" fill="#1D4F91"/>
<path d="M55.303 12.9531C54.9679 12.9531 54.6855 13.2279 54.6855 13.5517C54.6855 13.8755 54.9679 14.1503 55.303 14.1503C55.6437 14.1503 55.9223 13.8811 55.9223 13.5517C55.9223 13.2223 55.6437 12.9531 55.303 12.9531ZM55.8131 13.5536C55.8131 13.8209 55.5834 14.0374 55.303 14.0374C55.0281 14.0374 54.8023 13.8209 54.8023 13.5536C54.8023 13.2863 55.0263 13.0698 55.303 13.0698C55.5853 13.0698 55.8131 13.2863 55.8131 13.5536Z" fill="#1D4F91"/>
<path d="M55.4042 13.6074C55.472 13.566 55.5115 13.4945 55.5115 13.4116C55.5115 13.2874 55.4155 13.1914 55.2894 13.1914H55.2009C55.152 13.1914 55.1162 13.2291 55.1162 13.2818V13.8446C55.1162 13.8766 55.1444 13.9029 55.1783 13.9029C55.2122 13.9029 55.2386 13.8785 55.2386 13.8446V13.6356H55.2856L55.3948 13.8709C55.4042 13.8916 55.4249 13.9029 55.4475 13.9029C55.4569 13.9029 55.4682 13.9011 55.4757 13.8973C55.4983 13.8879 55.5115 13.8691 55.5115 13.8465C55.5115 13.8389 55.5115 13.8314 55.5059 13.822L55.4042 13.6074ZM55.3873 13.4135C55.3873 13.4154 55.3854 13.5189 55.2894 13.5189H55.2367V13.3119H55.2894C55.3873 13.3119 55.3873 13.4079 55.3873 13.4135Z" fill="#1D4F91"/>
</svg>
