<svg width="65" height="64" viewBox="0 0 65 64" fill="none" xmlns="http://www.w3.org/2000/svg">
<path d="M53.8332 25.3327V19.9993C53.8332 17.066 51.4332 14.666 48.4998 14.666H40.4998C40.4998 10.2393 36.9265 6.66602 32.4998 6.66602C28.0732 6.66602 24.4998 10.2393 24.4998 14.666H16.4998C13.5665 14.666 11.1665 17.066 11.1665 19.9993V25.3327C6.73984 25.3327 3.1665 28.906 3.1665 33.3327C3.1665 37.7593 6.73984 41.3327 11.1665 41.3327V51.9993C11.1665 54.9327 13.5665 57.3327 16.4998 57.3327H48.4998C51.4332 57.3327 53.8332 54.9327 53.8332 51.9993V41.3327C58.2598 41.3327 61.8332 37.7593 61.8332 33.3327C61.8332 28.906 58.2598 25.3327 53.8332 25.3327ZM48.4998 51.9993H16.4998V19.9993H48.4998V51.9993ZM24.4998 35.9993C22.2865 35.9993 20.4998 34.2127 20.4998 31.9993C20.4998 29.786 22.2865 27.9993 24.4998 27.9993C26.7132 27.9993 28.4998 29.786 28.4998 31.9993C28.4998 34.2127 26.7132 35.9993 24.4998 35.9993ZM44.4998 31.9993C44.4998 34.2127 42.7132 35.9993 40.4998 35.9993C38.2865 35.9993 36.4998 34.2127 36.4998 31.9993C36.4998 29.786 38.2865 27.9993 40.4998 27.9993C42.7132 27.9993 44.4998 29.786 44.4998 31.9993ZM21.8332 41.3327H43.1665V46.666H21.8332V41.3327Z" fill="#404040"/>
</svg>
